<!-- app logo from iconfont title="代收包裹" score=175 -->
<svg viewBox="0 0 1024 1024" version="1.1" xmlns="http://www.w3.org/2000/svg"><path d="M511.755258 1022.531549L68.527725 767.021033V256.489484L511.755258 0l443.227534 256.489484v510.531549zM114.783939 740.344168l396.971319 228.344169 396.971319-228.344169V283.166348L511.755258 55.066922 114.783939 283.166348z m0 0" fill="#3295FC"></path><path d="M781.216061 520.810707V335.296367l-110.133843 63.632887v185.514341z m0 0" fill="#F8AD4B"></path><path d="M920.718929 251.349904l23.005736 40.38241-417.529636 237.644359-23.005736-39.892925z m0 0" fill="#3295FC"></path><path d="M109.154876 251.594646L526.439771 489.483748l-23.005737 40.382409L86.14914 291.977055z m0 0" fill="#3295FC"></path><path d="M491.441683 509.307839h46.256214v469.414914h-46.256214z" fill="#3295FC"></path><path d="M402.845124 117.476099l371.518165 217.330784-110.623327 63.143404-367.112811-218.554494z m0 0" fill="#F8AD4B"></path></svg>