<!-- 菜鸟 query="菜鸟驿站" title="二维_菜鸟驿站" score=431 ratio=1 square-prefer -->
<svg viewBox="0 0 1024 1024" version="1.1" xmlns="http://www.w3.org/2000/svg"><path d="M507.52 1024a67.84 67.84 0 0 1-46.72-19.2l-37.76-38.4a483.84 483.84 0 1 1 568.96-479.36 480.64 480.64 0 0 1-400 476.16l-37.76 38.4a64 64 0 0 1-46.72 22.4z" fill="#CCC9C2"></path><path d="M507.52 67.2a419.84 419.84 0 0 0-64 832h10.24l52.48 52.48 55.04-52.48h10.88a419.84 419.84 0 0 0-64-832z" fill="#FFFFFF"></path><path d="M500.48 867.84v-18.56a32.64 32.64 0 0 0-32.64-37.12 409.6 409.6 0 0 1-96-17.92 240.64 240.64 0 0 1-128-100.48c0-3.2 0-6.4-5.12-8.96l7.68 6.4A290.56 290.56 0 0 0 417.92 768a245.12 245.12 0 0 0 167.04-42.88A261.76 261.76 0 0 0 704 512a171.52 171.52 0 0 1 0-25.6 30.08 30.08 0 0 1 28.8-26.88c8.96 0 10.24-3.84 4.48-10.88-43.52-53.76-85.76-108.16-128-160.64a124.16 124.16 0 0 0-185.6 0C384 333.44 348.16 384 310.4 427.52L295.04 448a10.88 10.88 0 0 0 0 7.68h10.24c26.24 0 39.04 13.44 35.2 39.68A105.6 105.6 0 0 1 277.76 576v-6.4c3.2-9.6 8.32-19.2 10.88-29.44s0-16-13.44-16H208.64c-28.16 0-40.96-21.76-26.24-45.44a407.04 407.04 0 0 1 32-42.24C270.08 370.56 324.48 300.8 384 232.96a171.52 171.52 0 0 1 140.8-64 173.44 173.44 0 0 1 132.48 64c64 78.08 128 157.44 192 236.16a81.92 81.92 0 0 1 9.6 16 26.88 26.88 0 0 1-25.6 40.32h-36.48a22.4 22.4 0 0 0-25.6 22.4 304.64 304.64 0 0 1-28.8 97.28 289.28 289.28 0 0 1-128 132.48A272 272 0 0 0 512 861.44a26.24 26.24 0 0 1-7.68 7.04z" fill="#DA4D31"></path><path d="M691.84 422.4c-9.6 8.96-17.28 16.64-25.6 23.68a30.08 30.08 0 0 0-9.6 29.44A216.96 216.96 0 0 1 640 592.64a224 224 0 0 1-170.24 128A236.8 236.8 0 0 1 256 640l-5.76-7.68c-5.12-8.96-3.84-12.8 7.68-13.44a128 128 0 0 0 76.16-23.04 109.44 109.44 0 0 0 45.44-87.68A261.12 261.12 0 0 1 384 427.52a138.88 138.88 0 0 1 143.36-102.4 128 128 0 0 1 97.92 64 207.36 207.36 0 0 1 10.88 20.48 14.08 14.08 0 0 0 14.08 9.6h28.16a43.52 43.52 0 0 1 13.44 3.2z m-150.4 5.12a21.76 21.76 0 0 0 22.4 20.48 21.76 21.76 0 0 0 21.76-22.4 22.4 22.4 0 0 0-22.4-23.04 21.12 21.12 0 0 0-21.76 24.96z" fill="#DA4D31"></path></svg>