<!-- 丰巢 query="丰巢" title="丰巢柜子" score=304 ratio=1 square-prefer -->
<svg viewBox="0 0 1024 1024" version="1.1" xmlns="http://www.w3.org/2000/svg"><path d="M512 1024C230.4 1024 0 793.6 0 512S230.4 0 512 0s512 230.4 512 512-230.4 512-512 512z m273.066667-349.866667v-51.2h-243.2v-34.133333H768V384H256v204.8h221.866667v34.133333H243.2v51.2h234.666667v89.6h59.733333v-89.6h247.466667z m-200.533334-320L524.8 298.666667l68.266667-51.2h-76.8L443.733333 298.666667l64 51.2h76.8z m187.733334 0L712.533333 298.666667l68.266667-51.2h-76.8L631.466667 298.666667l64 51.2h76.8z m-456.533334 0h81.066667L332.8 298.666667l68.266667-51.2H324.266667L251.733333 298.666667l64 55.466666z m388.266667 153.6v34.133334h-166.4v-34.133334h166.4z m-166.4-46.933333v-29.866667h166.4v29.866667h-166.4z m-59.733333 46.933333v34.133334H315.733333v-34.133334h162.133334z m-162.133334-46.933333v-29.866667h162.133334v29.866667H315.733333z m8.533334 234.666667L256 763.733333h76.8l68.266667-72.533333H324.266667z m294.4 0l76.8 72.533333h76.8l-76.8-72.533333h-76.8z" fill="#FFFFFF"></path><path d="M512 1024C230.4 1024 0 793.6 0 512S230.4 0 512 0s512 230.4 512 512-230.4 512-512 512z m273.066667-349.866667v-51.2h-243.2v-34.133333H768V384H256v204.8h221.866667v34.133333H243.2v51.2h234.666667v89.6h59.733333v-89.6h247.466667z m-200.533334-320L524.8 298.666667l68.266667-51.2h-76.8L443.733333 298.666667l64 51.2h76.8z m187.733334 0L712.533333 298.666667l68.266667-51.2h-76.8L631.466667 298.666667l64 51.2h76.8z m-456.533334 0h81.066667L332.8 298.666667l68.266667-51.2H324.266667L251.733333 298.666667l64 55.466666z m388.266667 153.6v34.133334h-166.4v-34.133334h166.4z m-166.4-46.933333v-29.866667h166.4v29.866667h-166.4z m-59.733333 46.933333v34.133334H315.733333v-34.133334h162.133334z m-162.133334-46.933333v-29.866667h162.133334v29.866667H315.733333z m8.533334 234.666667L256 763.733333h76.8l68.266667-72.533333H324.266667z m294.4 0l76.8 72.533333h76.8l-76.8-72.533333h-76.8z" fill="#C17653"></path></svg>