<!-- 京东 query="京东快递" title="京东快递" score=428 ratio=1 square-prefer -->
<svg viewBox="0 0 1024 1024" version="1.1" xmlns="http://www.w3.org/2000/svg"><path d="M1024 512c0 395.876174-116.123826 512-512 512S0 907.876174 0 512 116.123826 0 512 0s512 116.123826 512 512z" fill="#DEEBFF"></path><path d="M364.81113 437.76a27.603478 27.603478 0 0 1 27.558957 27.681391v91.714783c0 43.631304-21.481739 81.207652-60.66087 99.227826-15.938783 7.346087-34.80487 11.442087-56.286608 11.442087-39.101217 0-83.289043-19.099826-108.466087-51.890087l59.046956-45.634783c8.626087 17.953391 32.567652 29.239652 47.727305 29.239653 34.181565 0 42.418087-31.165217 42.418087-46.013218V437.76h48.66226z m169.817044-81.508174c51.97913 0 97.691826 26.679652 124.493913 67.049739v-67.049739h76.210087v233.071304H857.043478v67.138783H659.033043v-67.049739a149.025391 149.025391 0 0 1-124.471652 67.049739h-127.332174V465.441391a27.648 27.648 0 0 1 27.558957-27.681391h48.64v151.574261h51.2c45.57913 5.487304 86.995478-27.225043 92.382609-73.082435 5.465043-45.779478-27.091478-87.385043-72.748522-92.794435a83.968 83.968 0 0 0-19.70087 0l-99.773217-0.077913a27.603478 27.603478 0 0 1-27.570087-27.692521v-39.357218h127.410087v-0.077913z m-142.180174 0v39.357217a27.648 27.648 0 0 1-27.570087 27.692522h-48.573217V356.173913h76.132174v0.077913z" fill="#64A2FF"></path></svg>