<!-- 极兔 query="极兔快递" title="极兔快递" score=434 ratio=1 square-prefer -->
<svg viewBox="0 0 1024 1024" version="1.1" xmlns="http://www.w3.org/2000/svg"><path d="M0 0m0 0l1024 0q0 0 0 0l0 1024q0 0 0 0l-1024 0q0 0 0 0l0-1024q0 0 0 0Z" fill="#D71718"></path><path d="M962.986667 382.293333l20.053333-19.626666-354.261333 0.298666-45.013334 80.981334H716.8l-45.312 177.749333-9.002667 38.4h85.248l54.656-216.149333h97.536l24.405334-23.68H834.986667l11.178666-10.965334h89.472l6.186667-6.272 9.941333-9.770666h-88.32l11.306667-10.965334h88.192z m-343.04 131.84q-5.589333 46.336-32.64 83.114667l52.224 62.848h-79.232l-16.768-17.877333q-40.832 19.072-84.778667 19.072-66.005333 1.365333-99.242667-29.098667-24.490667-28.245333-23.765333-55.850667 1.194667-46.933333 75.306667-92.032c-38.058667-42.026667-30.762667-81.792-30.293334-84.565333v-0.170667c8.106667-34.986667 8.405333-36.608 8.405334-36.778666h194.901333l-45.482667 81.749333c-0.170667-0.213333 0.128-4.224 0.384-8.192 0.256-3.925333 0.554667-7.765333 0.384-8.021333 1.408-17.365333-17.706667-26.069333-36.949333-26.069334a42.410667 42.410667 0 0 0-42.709333 40.96v0.213334a17.834667 17.834667 0 0 0-0.170667 3.968 18.346667 18.346667 0 0 0 0.768 4.949333c1.28 5.845333 3.584 11.221333 6.997333 16.042667q20.821333 35.072 76.373334 76.501333 7.68-1.365333 16.042666-47.701333l60.245334 16.938666zM334.933333 403.626667l9.472-40.661334H256.981333L202.154667 600.32H72.789333l-16.469333 31.530667-8.362667 15.573333-6.997333 12.586667h234.666667l59.477333-256.426667H334.933333z m112.170667 130.432c-14.08 9.386667-50.645333 33.706667-24.234667 61.824q31.189333 33.28 85.077334 0l-55.893334-65.408c-0.554667 0.682667-2.389333 1.877333-4.949333 3.584z" fill="#FFFFFF"></path></svg>