<!-- 申通 query="申通快递" title="申通快递" score=428 ratio=1 square-prefer -->
<svg viewBox="0 0 1024 1024" version="1.1" xmlns="http://www.w3.org/2000/svg"><path d="M1024 512c0 395.876174-116.123826 512-512 512S0 907.876174 0 512 116.123826 0 512 0s512 116.123826 512 512z" fill="#DEEBFF"></path><path d="M720.673391 407.574261c-75.308522 0.077913-136.236522 60.794435-136.236521 135.769043C584.537043 618.317913 645.598609 678.956522 720.829217 678.956522 796.059826 678.878609 857.043478 618.162087 857.043478 543.265391v-0.077913c-0.077913-74.974609-61.139478-135.69113-136.370087-135.613217z m0.144696 206.669913c-34.771478 0-63.109565-31.833043-63.109565-71.056696 0-39.223652 28.271304-71.045565 63.109565-71.045565 34.782609 0 63.042783 31.833043 63.042783 71.045565 0 39.223652-28.271304 71.056696-63.042783 71.056696z m-540.416 42.985739V594.253913c11.664696 6.032696 96.445217 33.03513 129.101913 20.736 17.196522-6.477913 16.584348-28.961391 2.337391-36.118261-29.462261-11.776-57.566609-17.808696-86.060521-29.273043-24.776348-10.329043-44.165565-30.619826-47.415653-64.489739-2.203826-24.286609 9.238261-51.589565 30.141218-66.982957 41.293913-30.241391 122.735304-19.378087 163.951304 1.057391v55.296c-23.262609-7.702261-71.212522-17.808696-102.956522-15.693913-10.24 0.75687-17.363478 6.711652-19.166608 17.196522-1.669565 9.728 4.997565 18.253913 12.722087 21.270261 23.641043 8.904348 49.697391 14.636522 73.638956 23.607652 36.752696 13.278609 52.279652 39.145739 52.580174 67.895652 0 139.987478-199.401739 74.662957-208.873739 68.474435z m273.886609 0.378435c-18.565565-15.538087-29.70713-40.269913-29.551305-66.226087l-0.300521-183.885913c0.834783-34.31513 30.152348-62.074435 65.157565-62.45287h0.300522c2.80487 0 5.609739 0.222609 8.403478 0.523131v61.996521h66.671304v60.805566h-67.194435v91.191652c-0.155826 4.897391 0 9.794783 0.378435 14.703304 1.357913 36.663652 34.849391 47.816348 67.116522 27.080348v58.156522c-36.886261 28.204522-83.556174 21.192348-110.981565-1.892174z" fill="#64A2FF"></path></svg>