<!-- 顺丰 query="顺丰快递" title="顺丰快递" score=428 ratio=1 square-prefer -->
<svg viewBox="0 0 1024 1024" version="1.1" xmlns="http://www.w3.org/2000/svg"><path d="M871.05325 171.45362c-38.520567-41.172125-88.579059-72.978655-148.19289-93.897987-58.115336-20.907168-127.778327-31.448935-206.989359-32.105743-161.411757-1.337942-278.315048 37.054912-357.203758 117.611184-74.871235 77.0983-112.180356 190.384283-113.464781 345.322834-1.278343 154.434997 34.6454 268.329136 108.729682 346.664424 77.544686 81.854076 192.796228 122.165052 354.209201 123.502994 309.86737 2.5652 468.094825-153.060566 470.662457-462.930368 1.26618-152.947449-34.168606-265.339443-107.750552-344.167338z" fill="#282A2C"></path><path d="M359.342732 716.324422c-57.521776 0-114.26268-36.424863-114.26268-36.424863v-87.706964c101.768735 92.656133 168.415275 52.323263 168.415275 10.415271 0-41.623376-38.26879-53.591875-81.222811-75.715355-43.203364-22.117398-87.45762-48.146451-87.45762-117.095469 0-68.968478 72.104128-103.311017 127.018133-103.311017 54.927385 0 103.341425 26.285695 103.341425 26.285696v77.025321c-66.633161-56.474532-153.571417-36.6961-153.571417 4.943088 0 29.924898 59.089601 52.297721 83.812337 64.012011 24.73125 11.711858 80.950357 45.538681 80.950356 122.570084-0.266372 96.790374-69.492708 115.002197-127.022998 115.002197z" fill="#FFFFFF"></path><path d="M695.106578 559.926299c-26.789248 0-48.405526-21.587086-48.405526-48.139153 0-26.53139 21.615061-48.131856 48.405526-48.131856 26.817223 0 48.42377 21.600466 48.42377 48.131856-0.001216 26.552067-21.604115 48.139154-48.42377 48.139153z" fill="#BF2D2F"></path><path d="M779.192584 410.047602s-72.875269-53.869194-168.412842-15.877722v323.983874h-74.182803V333.022281s108.015708-61.145166 242.589564 0v77.025321h0.006081z" fill="#FFFFFF"></path></svg>