<!-- 邮政 query="中国邮政" title="中国邮政" score=403 ratio=1 square-prefer -->
<svg viewBox="0 0 1024 1024" version="1.1" xmlns="http://www.w3.org/2000/svg"><path d="M954.645418 1024H69.354582c-38.349004 0-69.354582-31.005578-69.354582-69.354582V69.354582C0 31.005578 31.005578 0 69.354582 0h885.290836c38.349004 0 69.354582 31.005578 69.354582 69.354582v885.290836c0 38.349004-31.005578 69.354582-69.354582 69.354582z" fill="#014610"></path><path d="M602.976892 834.702789l41.612749-182.769721h95.056574l11.423108-62.419124h-134.221514L575.23506 774.323506H330.046215l6.935458-32.229482h215.407172l41.612749-185.21753h164.411155l11.423108-57.931474h-203.576096l-39.16494 182.769721H348.812749l6.935458-27.741833h141.156972l32.229482-155.027888H387.569721l6.935458-32.229482h215.407172l25.294024-95.056574h161.963346l11.423108-57.931474h-201.536255L579.314741 406.336255h-171.346614l9.383267-34.677291h138.709164l27.741832-90.160956H815.936255l11.423108-62.419124h-275.378487l-23.254183 92.608765H387.569721l-41.612749 185.21753H204.8l-32.229482 152.58008h148.09243l-37.125099 185.21753h319.439043z m-377.370517-247.636654l6.935458-30.189641h106.479681l-9.383267 32.229482H225.606375v-2.039841z m148.09243 0l6.935458-32.229482h106.479681l-6.935458 32.229482H373.698805z" fill="#FFFFFF"></path></svg>