<!-- 圆通 query="圆通快递" title="圆通快递" score=430 ratio=1 square-prefer -->
<svg viewBox="0 0 1024 1024" version="1.1" xmlns="http://www.w3.org/2000/svg"><path d="M1024 512c0 395.876174-116.123826 512-512 512S0 907.876174 0 512 116.123826 0 512 0s512 116.123826 512 512z" fill="#DEEBFF"></path><path d="M670.052174 333.913043a173.801739 173.801739 0 0 0-110.992696 39.958261H334.959304l-60.894608 86.372174-23.908174-86.372174H178.086957l49.975652 148.680348-22.962087 107.163826h65.03513l22.950957-107.163826 53.960348-70.66713h32.678956L343.930435 629.715478h85.51513l37.854609-178.866087 37.264696 0.734609A180.112696 180.112696 0 0 0 494.191304 512c0 98.348522 78.736696 178.086957 175.86087 178.086957C767.165217 690.086957 845.913043 610.348522 845.913043 512s-78.758957-178.086957-175.860869-178.086957z m47.949913 161.725218c30.608696-20.48 38.511304-44.699826 36.096-70.64487L793.288348 422.956522c-7.379478 50.910609-30.408348 85.203478-76.299131 95.198608l1.00174-22.516869z m-189.796174 66.526609c62.508522 22.483478 115.990261 26.412522 137.193739-35.84-0.333913-62.096696-55.696696-57.121391-85.615304-17.39687-28.093217-43.108174 106.329043-123.136 121.711304 13.30087-16.484174 109.935304-147.923478 98.704696-173.289739 39.936z m156.672-132.040348c-12.365913-3.272348-18.888348-19.055304-14.558609-35.127652 4.329739-16.072348 17.93113-26.490435 30.274783-23.206957 12.332522 3.261217 18.888348 19.055304 14.547478 35.116522-4.34087 16.072348-17.92 26.490435-30.274782 23.218087z m72.314435 151.485217c-7.201391-34.214957-22.327652-37.242435-43.308522-35.84 29.473391-24.531478 65.380174-11.097043 78.380522 29.68487 9.605565 30.72-32.50087 35.84-35.072 6.15513z" fill="#64A2FF"></path></svg>