<!-- 韵达 query="韵达快递" title="韵达快递" score=428 ratio=1 square-prefer -->
<svg viewBox="0 0 1024 1024" version="1.1" xmlns="http://www.w3.org/2000/svg"><path d="M1024 512c0 395.876174-116.123826 512-512 512S0 907.876174 0 512 116.123826 0 512 0s512 116.123826 512 512z" fill="#DEEBFF"></path><path d="M306.009043 523.097043c2.782609-0.122435 4.118261 0.857043 5.465044 3.238957 25.310609 44.55513 59.458783 80.317217 105.271652 104.013913 37.732174 19.511652 77.968696 25.822609 120.075131 21.125565 21.314783-2.370783 41.928348-7.602087 62.107826-14.625391 3.506087-1.224348 7.012174-2.816 10.073043-4.897391 27.759304-18.877217 53.882435-39.702261 75.620174-65.52487 10.573913-12.55513 19.456-26.145391 23.663304-42.607304l75.686957 1.970087c-0.155826 0.857043-0.133565 1.52487-0.389565 2.070261-29.161739 62.241391-69.888 114.866087-128.066783 152.687304-36.006957 23.396174-75.686957 36.262957-118.516869 39.390609-1.224348 0.089043-2.448696 0.445217-3.661914 0.690087h-26.779826c-8.982261-1.079652-18.053565-1.669565-26.913391-3.339131a1101.712696 1101.712696 0 0 1-45.32313-9.705739c-64-14.903652-110.669913-54.806261-150.216348-104.793043-14.636522-18.509913-27.291826-38.4-38.4-59.213914-2.771478-5.186783-4.173913-11.108174-6.310957-16.985043 1.224348-0.400696 1.947826-0.834783 2.682435-0.868174 21.314783-0.879304 42.629565-1.669565 63.933217-2.626783z m234.295653-221.807304c1.513739 0.055652 3.049739 0.01113 5.142261 0.011131v81.530434h93.417739l2.548869 73.661218h-66.159304l38.745043 70.433391-61.083826 36.196174-41.906087-72.525913-42.184348 68.685913-64.111304-34.29287 39.401739-68.897391-61.050435-3.929043v-72.114087l88.05287 2.860521L472.264348 300.521739h46.035478l22.016 0.779131z m-229.843479 153.221565H233.73913v-75.330782h76.722087v75.330782z m479.799653 0h-76.722087v-75.330782H790.26087v75.330782z" fill="#64A2FF"></path></svg>