<!-- 中通 query="中通快递" title="zto 中通" score=460 ratio=1 square-prefer -->
<svg viewBox="0 0 1024 1024" version="1.1" xmlns="http://www.w3.org/2000/svg"><path d="M735.096 594.818c-1.689-2.902-3.059-6.227-4.111-9.922h-93.822c0.263 6.121 0.896 12.088 1.9 17.787h102.571c-2.795-2.48-4.956-5.171-6.538-7.865m-283.149-49.509h109.64l8.862-17.785H460.86l-8.913 17.785z m299.496-66.506a123.998 123.998 0 0 1 5.38-8.656h-91.921a260.946 260.946 0 0 0-8.123 17.786h89.864c1.53-3.164 3.114-6.226 4.8-9.13m-111.328 66.506h89.127c0.79-5.594 1.95-11.506 3.479-17.785H643.91a239.917 239.917 0 0 0-3.795 17.785m-173.823-28.713H575.88l8.912-17.79H475.205l-8.913 17.79z m275.5-17.79h-89.23a304.46 304.46 0 0 0-5.697 17.79h88.758a200.584 200.584 0 0 1 6.169-17.79m-261.101-10.873h109.534l8.858-17.786H489.549l-8.858 17.786z m247.444 77.696a80.773 80.773 0 0 1 0.052-9.443H638.48c-0.739 6.121-1.213 12.031-1.371 17.785h91.709c-0.315-2.637-0.58-5.44-0.683-8.342m45.194-114.851c3.375-3.277 7.542-6.495 12.446-9.344H682.2c-4.062 5.7-7.857 11.665-11.392 17.789h94.452c2.639-3.011 5.327-5.758 8.069-8.445m71.88-93.109c-28.792 0-55.267 5.226-79.421 15.517h150.565c-18.774-10.291-42.453-15.517-71.144-15.517m-68.716 256.097c-1.739 0-3.429-0.104-5.063-0.211H641.54c1.739 6.229 3.955 12.193 6.749 17.787h248.552c5.696-5.594 11.076-11.559 16.139-17.787H781.82c-1.739 0.107-3.481 0.211-5.327 0.211m155.63-229.707H744.219a202.584 202.584 0 0 0-15.98 10.502l5.222-10.502H422.466l-8.858 17.786h534.44a88.337 88.337 0 0 0-15.925-17.786m-437.09 75.164h109.485l8.91-17.789H503.946l-8.913 17.789z m159.689 183.361c4.378 6.547 9.548 12.355 15.349 17.42h189.696c8.544-5.064 16.771-10.873 24.68-17.42l0.317-0.314H654.512l0.21 0.314z m91.922-284.915H435.653l-7.702 15.517h310.94l7.753-15.517z m123.88 158.927h88.864a266.012 266.012 0 0 0 3.689-17.79h-89.283c-0.686 5.598-1.794 11.508-3.27 17.79m83.907-103.823H408.175l-8.861 17.789H961.34c-1.794-6.281-4.062-12.195-6.909-17.789m-80.267 57.374c0.316 2.692 0.475 5.595 0.632 8.497 0.158 2.957 0.108 6.02 0 9.289h89.864c0.739-6.122 1.214-12.032 1.373-17.786h-91.869z m-6.33-20.426c1.954 2.691 3.376 5.859 4.38 9.502h93.66c-0.316-6.179-0.948-12.089-2.002-17.789h-104.37c3.167 2.376 6.015 5.119 8.332 8.287M380.962 686.977h109.854l8.016-16.045H388.98l-8.018 16.045z m376.652 0.054c29.374 0 56.324-5.439 80.951-16.1H685.47c18.825 10.661 42.821 16.1 72.144 16.1m-363.151-27.027h109.799l8.913-17.734h-109.8l-8.912 17.734z m14.345-28.662h109.799l8.861-17.787H417.721l-8.913 17.787z m452.805-86.033h89.179a304.283 304.283 0 0 0 5.694-17.785h-88.862c-1.791 6.279-3.85 12.191-6.011 17.785m-424.062 28.662h109.694l8.858-17.785h-109.64l-8.912 17.785z m-14.346 28.713H532.9l8.911-17.787H432.118l-8.913 17.787z m406.5-8.237a74.646 74.646 0 0 1-11.392 8.236H921.26a237.136 237.136 0 0 0 11.337-17.787h-93.609c-2.848 3.43-5.906 6.649-9.283 9.551m23.364-30.664c-1.9 3.537-3.954 6.914-6.065 10.188h91.553a289.411 289.411 0 0 0 8.069-17.785h-89.708c-1.265 2.636-2.53 5.168-3.849 7.597" fill="#1A88C6"></path><path d="M198.016 357.696H435.65l-36.652 73.422-182.366 182.677h201.035l-36.705 73.209H69.971l36.595-73.209 182.845-182.677H161.893z" fill="#0E5DA6"></path></svg>